<svg width="77" height="24" viewBox="0 0 77 24" fill="none" xmlns="http://www.w3.org/2000/svg">
<path d="M9.4 0.535999C11.768 0.535999 13.8373 1.00533 15.608 1.944C17.3787 2.88267 18.744 4.20533 19.704 5.912C20.6853 7.59733 21.176 9.54933 21.176 11.768C21.176 13.9653 20.6853 15.9173 19.704 17.624C18.744 19.3307 17.368 20.6533 15.576 21.592C13.8053 22.5307 11.7467 23 9.4 23H0.984V0.535999H9.4ZM9.048 18.264C11.1173 18.264 12.728 17.6987 13.88 16.568C15.032 15.4373 15.608 13.8373 15.608 11.768C15.608 9.69867 15.032 8.088 13.88 6.936C12.728 5.784 11.1173 5.208 9.048 5.208H6.456V18.264H9.048ZM29.61 0.535999V13.976C29.61 15.32 29.9407 16.3547 30.602 17.08C31.2633 17.8053 32.234 18.168 33.514 18.168C34.794 18.168 35.7753 17.8053 36.458 17.08C37.1407 16.3547 37.482 15.32 37.482 13.976V0.535999H42.954V13.944C42.954 15.9493 42.5273 17.6453 41.674 19.032C40.8207 20.4187 39.6687 21.464 38.218 22.168C36.7887 22.872 35.1887 23.224 33.418 23.224C31.6473 23.224 30.058 22.8827 28.65 22.2C27.2633 21.496 26.1647 20.4507 25.354 19.064C24.5433 17.656 24.138 15.9493 24.138 13.944V0.535999H29.61ZM52.2685 0.535999V23H46.7965V0.535999H52.2685ZM69.994 23L65.418 16.12L61.386 23H55.178L62.378 11.576L55.018 0.535999H61.386L65.898 7.32L69.866 0.535999H76.074L68.938 11.864L76.362 23H69.994Z" fill="black"/>
</svg>
