<svg width="164" height="24" viewBox="0 0 164 24" fill="none" xmlns="http://www.w3.org/2000/svg">
<path d="M9.4 0.535999C11.768 0.535999 13.8373 1.00533 15.608 1.944C17.3787 2.88267 18.744 4.20533 19.704 5.912C20.6853 7.59733 21.176 9.54933 21.176 11.768C21.176 13.9653 20.6853 15.9173 19.704 17.624C18.744 19.3307 17.368 20.6533 15.576 21.592C13.8053 22.5307 11.7467 23 9.4 23H0.984V0.535999H9.4ZM9.048 18.264C11.1173 18.264 12.728 17.6987 13.88 16.568C15.032 15.4373 15.608 13.8373 15.608 11.768C15.608 9.69867 15.032 8.088 13.88 6.936C12.728 5.784 11.1173 5.208 9.048 5.208H6.456V18.264H9.048ZM29.61 0.535999V13.976C29.61 15.32 29.9407 16.3547 30.602 17.08C31.2633 17.8053 32.234 18.168 33.514 18.168C34.794 18.168 35.7753 17.8053 36.458 17.08C37.1407 16.3547 37.482 15.32 37.482 13.976V0.535999H42.954V13.944C42.954 15.9493 42.5273 17.6453 41.674 19.032C40.8207 20.4187 39.6687 21.464 38.218 22.168C36.7887 22.872 35.1887 23.224 33.418 23.224C31.6473 23.224 30.058 22.8827 28.65 22.2C27.2633 21.496 26.1647 20.4507 25.354 19.064C24.5433 17.656 24.138 15.9493 24.138 13.944V0.535999H29.61ZM52.2685 0.535999V23H46.7965V0.535999H52.2685ZM69.994 23L65.418 16.12L61.386 23H55.178L62.378 11.576L55.018 0.535999H61.386L65.898 7.32L69.866 0.535999H76.074L68.938 11.864L76.362 23H69.994ZM81.669 23.256C80.709 23.256 79.9197 22.9787 79.301 22.424C78.7037 21.848 78.405 21.144 78.405 20.312C78.405 19.4587 78.7037 18.744 79.301 18.168C79.9197 17.592 80.709 17.304 81.669 17.304C82.6077 17.304 83.3757 17.592 83.973 18.168C84.5917 18.744 84.901 19.4587 84.901 20.312C84.901 21.144 84.5917 21.848 83.973 22.424C83.3757 22.9787 82.6077 23.256 81.669 23.256ZM87.2122 11.736C87.2122 9.51733 87.6923 7.544 88.6523 5.816C89.6123 4.06667 90.9456 2.712 92.6523 1.752C94.3803 0.770665 96.3323 0.279999 98.5083 0.279999C101.175 0.279999 103.458 0.983999 105.356 2.392C107.255 3.8 108.524 5.72 109.164 8.152H103.148C102.7 7.21333 102.06 6.49867 101.228 6.008C100.418 5.51733 99.4896 5.272 98.4443 5.272C96.7589 5.272 95.3936 5.85867 94.3483 7.032C93.3029 8.20533 92.7803 9.77333 92.7803 11.736C92.7803 13.6987 93.3029 15.2667 94.3483 16.44C95.3936 17.6133 96.7589 18.2 98.4443 18.2C99.4896 18.2 100.418 17.9547 101.228 17.464C102.06 16.9733 102.7 16.2587 103.148 15.32H109.164C108.524 17.752 107.255 19.672 105.356 21.08C103.458 22.4667 101.175 23.16 98.5083 23.16C96.3323 23.16 94.3803 22.68 92.6523 21.72C90.9456 20.7387 89.6123 19.384 88.6523 17.656C87.6923 15.928 87.2122 13.9547 87.2122 11.736ZM123.139 23.224C121.027 23.224 119.086 22.7333 117.315 21.752C115.566 20.7707 114.169 19.4053 113.123 17.656C112.099 15.8853 111.587 13.9013 111.587 11.704C111.587 9.50667 112.099 7.53333 113.123 5.784C114.169 4.03467 115.566 2.66933 117.315 1.688C119.086 0.706666 121.027 0.216 123.139 0.216C125.251 0.216 127.182 0.706666 128.931 1.688C130.702 2.66933 132.089 4.03467 133.091 5.784C134.115 7.53333 134.627 9.50667 134.627 11.704C134.627 13.9013 134.115 15.8853 133.091 17.656C132.067 19.4053 130.681 20.7707 128.931 21.752C127.182 22.7333 125.251 23.224 123.139 23.224ZM123.139 18.232C124.931 18.232 126.361 17.6347 127.427 16.44C128.515 15.2453 129.059 13.6667 129.059 11.704C129.059 9.72 128.515 8.14133 127.427 6.968C126.361 5.77333 124.931 5.176 123.139 5.176C121.326 5.176 119.875 5.76267 118.787 6.936C117.721 8.10933 117.187 9.69867 117.187 11.704C117.187 13.688 117.721 15.2773 118.787 16.472C119.875 17.6453 121.326 18.232 123.139 18.232ZM163.112 0.535999V23H157.64V9.528L152.616 23H148.2L143.144 9.496V23H137.672V0.535999H144.135L150.44 16.088L156.68 0.535999H163.112Z" fill="white"/>
</svg>
